<svg width="336" height="205" viewBox="0 0 336 205" xmlns="http://www.w3.org/2000/svg"><title>Drupal Camp Colorado</title><g fill="none" fill-rule="evenodd"><path d="M193 56.2c11.6 14.6 17.5 32 17.5 51.3 0 11.3-2 22-6.4 31.6-4 9.3-9.6 17.5-17 24.4-14.6 13.6-34.2 21-55.3 21-10.4 0-20.6-2-30.3-5.8-9.6-4-18.2-9.4-25.6-16.4-15.7-14.8-24.3-34.7-24.3-56C51.5 87 57.7 70 70 55.6c9.2-11 19.3-17 23.2-19.2 2-1 3.6-2 5.4-2.8C104 31 109 28.4 116 23c3.7-3 7.7-7.4 9.4-18.8 5.8 7 12.7 15 18 18.2 4.5 3 9.3 5.2 14 7.3 4.2 2 8.7 4 13 6.8h.3c13 8.2 20 17 22.2 19.7z" fill="#E46D6A"/><path d="M335.7 205c-2-1-35-13.3-64.6-28-29.5-14.4-50-28-51.8-28.8-4-1.6-7.3-3.8-11.2-5.2-10.6-4-21-9.3-31.7-12.7-8-2.5-16.5-4-24.6-6.2-4.5-1.2-9-2.7-13.3-4-5-1.6-9.8-5-15-5-3-.3-6 .2-9.2.7-14 2.4-27.8 7-41.5 11-16.5 4.8-91 14-91 14v64.4h354z" fill="#415595"/><path d="M252.7 143.4c-.4.4-.2.8-.2 1 0 1.2 0 2.2-.2 3.2-.2.7-.4 1.5.2 2.3 0-2.3.6-4.4.2-6.6zm-.5 40.4c0-1.7.2-3.4 0-5-.4 1.7-.2 3.4 0 5zm0-128.2c.3 0 .5-.3.8-.5l1.5-1c.5-.5 1.3-.8.6-1.7.8-.8.2-1.2-.2-1.6-.4-.7-.5-.7-1 0-.3.3-.6.5-1 .6-.6 0-1 .4-1 1 0 1 0 2.2.3 3.3zm9.3 56.7c.5 0 1 0 1.4.5 0 0 0 .3.2.2 1-.8 1 .3 1.5.6-.2.5-.5 1-1 1-.5.4-1 .7-.4 1.4v.4c.2.3.6-.3 1 0-.6.3-1.3.5-1.8 1-.2 0-.4.3-.2.5h.6c.2-.3.5-.6 1-.7-.8 1-1.8 1.5-2.7 2-.3.3-.7.4-.7-.2h-.3c-1 0-2 .2-3 .5 0 .3.4 0 .5.4l-3 1.6c-.4.3-.6.5-.5 1 0 .8 0 1.6-.3 2.3v.7c.4 1 .2 2 0 3v3.7c.2.8.3 1 1 .6l3.7-1.6c.4 0 .7-.3.7.4 0 .4.4.4.8.6-1.8.6-3.2 1.7-4.8 2.3-.6.3-.5-.4-1-.4v7.4c1.3-.4 2-.2 3 .2l2 .6c1.5 0 2.7.8 4 1l.2.2c.4.3.7.8 1.2.7.3 0 .6-.6 1-1l.4-.5c.5-.4.8-.7 1.5-.4.5.2 1.2.3 1.8-.2h.4c0 .5-.3.8-.2 1.2 0 .2.3.5.5.2.3-.3.5-.5 1-.2.2 0 .4 0 .6-.2.8-.4 1.6-1 2.5-1.3.2 0 .5-.4.8 0 .3.2.2.5 0 .8l-.2.6 1.3-1c.6-.5.6-.5 1.6 0-.5.7-1.4 1.2-1.7 2l1.6-1s.5-.5.7 0c0 .4.4.2.6 0 .4 0 .6-.4 1.2-.2-.7.5-1 1-1.5 1.8.8-.2 1.6-.7 2.3-1 .7-.4 1-1.3 1.4-2 .4.5-.2 1 0 1.4.8-.2 1-1.2 2-1.6-.5 1.2-1.6 1.8-2.3 3 1-.5 1.8-1 2.5-1.6 0-.2.5-.8.6 0 0 .5.3.3.5.2l2-.8s.2-.2.5 0c0 .8-1 1-1.5 1.6-.4.7-.8 1.3-1.6 1.7 1 .6 2 0 3-.3-.7.5-.4 1.7-1.5 1.8.4.3.8 0 1-.3.5-.4.8.6 1.2 0 .2-.2.8 0 1-.3l1.5-.6c0 .4-.3.7-.6.8-1.2.2-2 1.3-2.7 2.3-.3.4-.5.5-1 .5-2 0-3.8-.2-5.8-.3-1.2 0-1.2 0-2.4.6.2.4.6.2.8.4 0 .2-1 .4 0 .8.2.2-.2.7.2 1v.3c-1 .4-1.7 1-2.7.4-.4-.2-.8 0-1.2 0 .2.6.6.7 1 1-.5.2-.8-.2-1-.4-.4-.3-.7-.8-1.3-1-.2 0-.2-.2-.3-.4-.3-1-1.8-1.3-2.5-.7-.5.4-.2.8-.2 1.2-.5 0-.8-.3-1-.6-.5-.7-1.4-1-2.2-1.4h-.3c-.4.8-.7 0-1 0-.3-.3-.6-.4-1-.4-1 .2-1.8-.3-2-1.4 0-1-.4-2 0-3.2 0-.3 0-.5-.4-.7-2.5-.8-4.8-2-7.3-2-.5 0-1 0-1.3.3-.5.2-.8.7-.7 1.3v2.6c.2.7.3 1.3 0 2-.4 1.3-.2 2.6-.2 4 0 2 .3 4.2 0 6.4-.2.6 0 1.3 0 2 1.5-.7 2.8-1.3 4-2.2 1.2-1 2.5-1.5 4-2.2.3-.2.7-.4 1.2-1-.4 1-1 1.4-1.4 1.8-1.4 1.3-3.3 1.7-4.7 3-.8.8-1.6 1.4-2.4 2-.7.6-1 1.3-1 2.2.3 1.6.2 3.3.5 4.8v1c-.2.6-.3 1.3-.2 2.3 1.7-1 3-2.2 4.7-2.7-.4.7-.7 1.4-1.4 1.8l-2.4 1.5c-.7.3-1 .8-1 1.6l.3 6.4c0 .8.3 1.6.4 2.4.2 1.5 1 3 .4 4.4-.2.4 0 1 .2 1.4.3.7.3 1.5.3 2.2v2.4c.8 0 1.3-.5 1.8-1 .3 0 .5-.2.8-.4h.4v.4c-.7.7-.8 1.8-1.8 2.3-.7.4-1 1.2-1 2.2.4 1.4.2 3 .5 4.3v.6c-.6 1.2-.6 2.5 0 3.7v1c0 3.5.4 7 .5 10.4v4.8c0 1.2 0 2.4.2 3.6.3 1.8 1.6 2 2.6 3 0 0 .3 0 .4.2 0 .3-.4.3-.7.3-.4 0-.7 0-1 .3-.3.2-.7 0-1 0-.6 0-1.2 0-1.6-.4-1-.6-2 .2-3-.2-.3 0-.5.3-.8.4-.5.4-1 1-1.7.4l-1 .3h-.2v-.5l.6-.4c1-.5 1.4-1.2 1.4-2.4 0-1.4.4-3 0-4.4.4-3-.3-6.3 0-9.4l-.2-2.2v-7.8c-.2-2.2 0-4.4-.2-6.6-.2-2.3-.2-4.7 0-7 0-1-.4-1.7-1.3-2-.6-.2-1-.6-1.6-.7-.5-.2-.4-.3 0-.8.3-.4.5-.5 1-.3 2 .4 2 .4 1.7-1.6V181c0-1.5 0-3-.5-4.3-.5-1.3 0-2.7 0-4 0-1-.4-1.4-1-2-1.2-1.4-2.7-2.3-4-3.5 0-.2-.3-.3-.2-.5.3-.3.5 0 .7 0 1 .8 2 1.7 3.4 2l.5.4c.4.5.7.4.8 0 0-1 .2-1.8.3-2.7 0-1 0-2 .3-3v-2.8c0-2 0-4.2-.2-6.3 0-1.2-.6-2.4-1.4-3.4-.3-.4-.6-1-1.3-.6-2-1-4.2-.8-6.2-1.6-.6-.2-1.3-.5-2-1v-.5h.4c.6 0 1.2 0 1.7.3.6.5 1.5.7 2.4 1 2.2.5 4.5 1 6.6 2 .4-1.3.3-2.6.2-3.8-.3-3.8-.2-7.5-.3-11.3-.2-2-1-4-2.6-5.5-.2 0-.3-.3-.4-.3-2.3-.8-4.4-2-6.8-2.2-1 0-1.7 0-2.6.3-1 .2-2 .4-3 .2-.7 0-1.2 0-1.6.5l-1 .8c-.2 0-.5.3-.7 0-.2-.5-.4-.2-.6 0-.4.2-.8.4-1.3.4-.6 0-1.3-.2-1.8.6-.3.5-1 0-1.4.2-.4-.4 0-.8-.3-1h-.3l-.2.2c-.8 1-.8 1-2 .5 0-.5.4-.7.6-1 .3-.2.4-.5.3-.8-.3-.4-.5 0-.8 0-.3 0-.6.3-1 0 0-.4.5-.3.7-.6 0 0 0-.2-.2-.2h-2.8c.4-1 1-1.6 2-1.5l1.8-.3v-.3c-1.3-.3-2-1.5-3.2-2l-.2-.2c.3-1.2-1-1.2-1.5-1.8v-.2c0-.3.4 0 .7-.2 0-.4-.5-.6-.3-1h.3c.4.2.5.6.7.8.3.4.5.8 1 1 0-.8-.4-1.4-.7-2-.2-.5-.5-.8 0-1 .5-.3 0-.8.2-1.2.5 0 .4.8 1 1 .2-.5 0-1 .2-1.5 1.2.7 1.2.7 1.3-.6l.2-.2c.7.4 0 1.3.6 1.7.4-.4.2-1 .4-1.3 0 0 0-.3.3-.3.2 0 .4 0 .4.3 0 .5 0 .8.7.7l.2.2c-.2 1 1 1.4 1 2.2 0 .3.4.4.7.2.5-.5 1-.6 1.7 0 .2.4.7.5 1 0 .2-.2.4-.3.6-.2.2.7-.6 1-.7 1.5.3 0 .4-.2.6-.3.5-.5 1.2-.3 1.4.4 0 .4.3.4.6.2.2 0 .3-.3.4-.5.4-.7.4-.7 1 0 0 0 0 .3.2.4.4.6.6.6 1 0l.7-.7c.2-.2.2-.5.6-.6.5.8 0 2 1 2.4 1 .3 1.5 1.2 2.5.7 0 .6 0 1 .2 1.4.2 1 .3 1.2 1.4 1.4.4 0 .8 0 1 .6 0 .4.6.6 1.2.6 1.2 0 2.2.8 3.2 1.4.8.5 1.6 1 2.6 1 .2-1 0-2.3.2-3.5V121c0-.7-.2-1-1-1.3-1-.3-2-.8-2.7-1.5.5-.4.8 0 1 .2.7.5 1.3.8 2 1 .3 0 .4 0 .5-.2 0-.2 0-.4-.2-.4l-2.7-1c-.3-.4-.7.2-1 0-.2-.5.4-.5.6-1-1.4-1-3-1.5-4.7-2.4.5-.7 1.2-1 2-.6l2 .6c.3-.5-.2-.7 0-1 0-.6.3-.8.7-.6.5.3.7.8 1.3 1 .2-.7-.5-1-.6-1.8 1 0 1 1.2 1.8 1.4 0-.6-.7-.8-.5-1.4h.3c.6.2 1 0 1-.5l-.2-1.7-.2-8.8c0-.7-.2-1.2-.7-1.6-1.2-1-2.2-2-3.7-2.2-.5 0-1-.5-1.4-1-.7-.7-1-.7-2-.2-.7.4-1.7.6-2.6.7-.7 0-1 .2-1.2.6-.3.6-.5 1.4-1.4 1-.2-.2-.4 0-.5.3-.2.4-.3 1-1 1-.3 0-.2.5-.6.5-.4-.4.2-1 0-1.4-.6 0-.5.6-.7.8-.2.2-.3.5-.6.3-.3 0 0-.3 0-.5v-.2c-.4 0-.4.5-.8.5v-.3c0-.4.2-.7 0-1-.3-.4-.2-1-.8-.8-.2 0-.5-.2-.4-.5 0-.3.3-.2.6-.2.4 0 1 0 1-.6-.2-.4-.6 0-1-.4 0-.3.7-.5.3-1-.3-.4-.7-.2-1 0h-.8c-.3.2-.3.2-.6-.4-.2-.2-.3 0-.5 0-1.7-.2-3-1-4.4-2 0-.2-.2-.3 0-.5 0-.4-.3-.5-.6-.8-.5-.5-1-1-1.2-2l-.4-.7c-.4-.4-.3-1-.2-1.5 0-.3.4-.5.7-.6.6 0 1 .6 1.4.4.7-.2.8.5 1.2.8.2-.3-.2-1 .2-1h1.2c.2 0 .2.4.3.6.3.5.2 1.2 1 1.4.4-.2-.3-1 .4-1 .6 0 .5 1 1 1 .4 0 .6-.7.6-1.3.4 0 .5.2.5.4.3.5.3 1 1 1 .3 0 .4 0 .5.3 0 0 0 .3.2.5 0 .3.4.5.7.3.3-.2 0-.5 0-.8-.3 0-.8-.2-.5-.6 0-.3.4 0 .7 0 .4.2.7.5 1 .5.3-.2.2-.4.3-.5 0-.4 0-1 .3-1 .6 0 .3.5.5.8 0 0 0 .2.2.3.5.6 1 .6 1 0 .3-.6.7-1 1-1.3 0-.5.4-.6.8-.2l.2.3c.6.2.5 1.3 1.5 1 .5-.4 1.2 0 1.7-.6.2.6 0 1 0 1.6v1.5c.8 0 1-.6 1.6-.8 0 1-.7 1.8-1 2.6 1-.2 1.6.2 2 1.3.4 1 1.2 1.7 2 2.4.7.6 1.4 1.3 2.5 1.4.2 0 0-.4 0-.6v-12l-.2-3.3c0-1-.5-1.8-1.6-2-1.2-.2-2-1-3-1.8 0 0 0-.3-.2-.3-1.2-.2-2.4-.7-3.4.4 0 .2-.3.4-.4.4-.8 0-1.3.4-1.8 1-.3.2-.4 0-.7-.2-.4-.2-1-.7-1.5 0-.4.7-.5 0-.7-.2l-.7.8c0 .2-.3.4-.5.3-.3-.2-.2-.5 0-.7v-.3c-.5 0-.7.3-1 .3-.2 0 0-.2 0-.3 0-.3.3-.5.3-1-.5 0-.8.4-1 .8-.8.8-1.7 1-2.7.7-.2 0-.4.2-.6 0 0-.5.6-.7.6-1.2-1 0-1.3 1.2-2.2 1.3-.4-.2.2-.3 0-.6-.2 0-.5.4-.8 0 0-.4.5-.4.5-.5 0-.6-.4-1-.7-1h-.4c-.3.2-.6.4-1 .3-.4 0-.3-.5-.4-.8-.2-.4-.8-.6-.5-1.2 0-.2-.3-.3-.4-.2-.3.7-1 .6-1.5.6.2-.5.7-.5 1-.6.8-.5 1-1 0-1.6l-1-1c-1-.8-1-1 .3-1.6l-1.7-2.5c.8.3 1 1 2 1.6-.5-1.4-1.6-2-1.4-3.4h.5c.5-.2.8.3 1 0 .3-.2.4-.6.5-1 .5.2 1 1 1.6.5.5 0 .8.7 1.4.6 0 0 .3.5.3.8 0 .8.4 1.5.7 2.2 0 .6.4 1 1 1.3 0-1-.5-1.6-.3-2.3 1 .7 1.7 1.5 2.8 1.7.4 0 .6.4.8.6.7.5.7.5 1.2-.2l1.4 1.3c.8-1-.5-1.7-.2-2.7.5 0 .5.6 1 .6.4-.6-.4-1 0-1.7.3 1.4 2 1.8 2 3.5.6-1.3-.4-1.8-.7-2.5.4-.3.5 0 .7.2.4 0 .4-.3.7-.2.2 0 0 .3 0 .5.2.4 0 1.3 1 .6.6.6 1.6-.4 2.3.5.2.2.8-.3 1 0 0 .5-1 .2-.8 1 .5 0 .8-.5 1.3 0 .4.5.2 1 .7 1.5.4-.2.5-.8 1-1 .3.8-.3 1.3-.7 2 .5 0 .7.4 1.2.5 0 .3-.6.3-.6.8 1 .4 1.5 1.4 2.7 1.4.3 0 .6.4 1 .6.3.5.7 1 1.3 1.2.4-.6.3-1.2.3-1.7V70c0-.7 0-1-.7-1-1.2-.3-2-1-3.2-1.4-.3 0-.4-.2-.3-.4.2-.2.2-.3.2-.5 0-1 0-1 1-1 .3.2.6.3 1 0-.2-.5-.7-.6-1-1-.2-.3 0-.7.4-.7.8 0 1.4-.5 2.2-.6.3 0 .5 0 .5-.4 0-1.5.4-3-.2-4.3 0-.4-.3-.7-.7-.8-1-.4-1.7-.3-2.5 0-.3 0-1 0-.8.7 0 .2-.2.3-.4.3-.7.3-1.3 1-2.3.7.5.3 1 .4 1.8.4-.7.8-1.6 1-2.4 1.2-.5.2-1 .4-1.5.8-.3.5-1 .7-1.6.6-1 0-1.8 0-2.6.5-.4.3-.8.5-1 .8-.3.3-.4.5-1 .4.2-.7 1-1 1-1.7l-2 1c-.4.4-.8 1-1.6.5-.2 0-.6.3-1 0 .2-.4.5-.6.8-.7.2 0 .3-.3 0-.4 0-.3-.2-.3-.3-.2l-.8.6c-.4.2-.6.4-.8-.2-.2-.4-.8.3-1-.3.2-.6 1-.6 1.3-1 0-.4-.3-.6-.5-.7-.4-.4-.7-.7-.7-1.4 0-.8-.6-1.3-1-1.7 0-.3.2-.3.3-.2.6.8 1.4.2 2 .5.3.2 1-.8.8-1.4l-.4-.6c.7-.2 1.2.3 1.7.4.3 0 .6.4 1 0 .2-.5-.4-.5-.6-.8l-.4-.3c.8 0 1.3-.7 2 0 .3-.3.2-.5 0-.8 0-.6.3-.8.7-.5.7.4 1 0 1.4-.5.5.6.3 1.6 1.3 1.7.2-.3 0-.7 0-1 0-.2.2-.4.4-.4s.4 0 .4.3l.3 1c.2.2 0 .6.5.5.3 0 .7 0 .7-.4V55s.2-.2.3 0h.3c0 .2 0 .4.2.6.3 1 .3 1 1.3.8.5 0 .8.3 1.2.4.2 0 .2.2 0 .4 0 .7.2 1 1 .6.6-.2 1.2-.4 1.8-1-.3-.5-1.3-.3-1.6-1 .5-.2.7-.7 1.3-.6.4 0 .7-.8 1.3-.3.5-.5 1-.3 1.4 0 .4.3 1 .2 1.3 0 .2 0 .2-1.3 0-1.5 0-.2-.3-.3-.5-.3l-.8.3c-.5.2-1 .4-1.4-.3 0-.2-.4-.3-.5-.2-.8.8-1.3-.3-2-.2-.8.2-1.5 0-2.2 0-.3-.2-.8-.2-.6-1 0 0-.5 0-.6-.3.2-.5.8-.7 1.2-1 .3-.3 1-.6.6-1-.3-.6-.8 0-1 0-.4.3-.6.5-1 .4 0-.4.3-.5.3-.8h-.3l-.6.6c-.3.3-.6.5-1.2.2-.5-.3-1.2-.2-1.8.5 0-1 .7-1.2.5-2-.5.3-.6 1.2-1.2 1.3-.6 0-1 .5-1.7.5 0-.7.8-1 .8-1.8-.5 0-.8.4-1 .7-.6.4-1 .4-1.6 0l2-3c-.6-.4-1.3-.2-1.7-.8.4-.4 1 0 1.4-.2.5-.3.4-1 .8-1.2-.4-.7-1.3-.7-1.7-1.3.8-.7 1.5.2 2.2 0 0-.6-1.2-.6-1-1 .3-.6 1 0 1.5 0 .6 0 1.3.3 2 .4-.2-.5-.6-.8-1-1-.7-.4-1-1-1-1.7 1-.2 1.6.6 2.5 1 1 .2 1.7.6 2.7 1 0-1 1-1.6 1.7-2.4.7-1 .7-1.2-.5-1.7-.4 0 0-.5-.2-.6-.5 0-.5.7-1 .6-.3-.6.6-1 .6-1.4 0-.2 0-.2-.2-.2-.4.2-.7 1-1 .4-.5-.4.2-.6.4-1l.3-.6c-.4-.7-1-1.2-2-.8-.5.2-.6-.6-1.3-.4.5-1 1.2-1 1.8-1.6-.5-1-1.2-1.6-1.2-2.8.7 0 .8 1 1.5 1 .3-.4-.3-.6 0-1 .3 0 .4.2.5.4.3.4.5.6 1 .3.4-.3.7 0 1 .2.4.3 1.4.3 2.2.3.6 0 1 0 1.5-.6 0-.2.4-.2.6 0 .3 0 .5.3.8.2 0-.5-.3-.5-.6-.6l-1.7-.8s-.3-.3-.2-.6c0-.3.4-.2.6 0 .5 0 1 .3 1.5.5h.2c-.5-.7-1.3-.8-1.8-1.5.6-.4 1.5 0 2-.7-.7-.4-1.4-1-2-1.6 0-.2-.4-.4-.2-.7 0-.3.4 0 .6 0 .5-.3.8 0 1.2.2 0-.5-.4-.8-.7-1-.4-.6-.4-1.3 0-1.7.4-.4.2-1 .4-1.3.7.7 1.2 0 1.7-.2.4 0 0 .6.6.8.8.3.6 1.3.5 2 0 1 .5 1.7 1.2 2l.8.6c.7.4.7 1 1 1.7 0 .3 0 .5-.2.6-.6.4-.5 1.2-1 2 .6-.3 1-.7 1.5-.6.4 0 1 .3 1.4 0-.3.2-.5.6-.8 1v.4h.5c1-1 2.3-2 3.2-3.2.5-.5 1.3 0 1.8-.5 0 0 .2.3 0 .5l-.7 1c.7.4.8-.5 1.3-.4.4.5-.2.8 0 1.3.5-.3 1-.3 1.6 0 0 .4-.3.8-.8.6-.8-.3-1 .3-1.3 1 1-.6 1.6.5 2.4.6 0 0 .2.4 0 .5-.5 0-.7.6-1.2.6 1 0-.2 1.3.8 1.4-1 .2-1.8.4-2.6 1-.6.4-1.3 0-2 0-.3 0-.7 0-1 .3.2.7 1.2.7 1.3 1.5H256c-.4-.2-.6 0-.5.6 0 1.3 0 1.4-1.3 1.3 0 .3.3.4.5.6.7.4.7.4 1.4 0l1-.7c.2-.2.6 0 .8.2.3.3 0 .5-.3.7-.5.5-1.2 1-1.6 1.7.8-.4 1.3-1.3 2.2-1.5.4.3 0 .5 0 .8.2.3.5-.2.8 0 .4.3 0 .6 0 1 .7-.4 1-.3 1.2.5 0 .6.7.5 1 .3 1-.4 2-.6 2.8-1 0 .5-.7.4-.7 1 .6 0 1.2 0 1.7-.4.2-.2.4-.2.5 0 .2.2.2.4 0 .6 0 0 0 .3-.2.5-.7 1-.7 1 0 2 .8.8 1.8 1.5 3 2 0 .2 0 0 .3 0-.2-.4-.6-.5-1-.7v-.3c0-.3 0-.3.3-.2.5.4 1.2.5 2 .7-.5.5-.5 1-1 1.5-.7.6-.6.8.3 1 .2 0 .3.2.5.4-.3.5-.4 1-1 1s-.8.7-1.4.4v.2c.5 1.2-.5.8-1 1 0 0-.2 0-.3.2l1.5 1.2c-.6.6-1.3 0-2 .2 0 .5.4.6.7 1-.8.4-1.6.4-2.3 0-1-.3-1.8-.2-2.7.2-1 .4-2 .5-3 .6-.3 0-.8 0-.4-.5 0-.2 0-.3-.2-.4-.4-.2-1.4 0-1.8 0-1.7 1.4-2.8 3-3.5 5-.5 1.2-.7 2.7.3 4 .2.5.4.4.7.3.4-.2 1-.4 1-.7.4-1 1.4-.8 2-1.3.3 0 .5 0 .4.3-.3.7.8.7.4 1.4h.2c1 0 .6.7.7 1 .7.3 1-.3 1.5-.5.2.6 0 1-.4 1.5-.6.6-1.4 1-1.7 2 0 .3-.4.5-.6.6-1.4 1-2.6 2.4-3.8 3.7-.2.3-.4.6-.4 1v4.3c0 .6.2.8.8 1 1.2 0 2.2-.4 3.3-.6.3 0 .6-.3 1-.3s.7-.2 1-.5c.3-.5.8-.8 1.2-1.2.2-.2.4-.4.4-.6 0-.6.4-.8.7-1.2.2-.3.4-.6.3-1-.2-1.3.3-2.4.2-3.7h.4c.3.4 0 1 .6 1 .4 0 .2-.7.4-1v-.7c.2-.4.3-.6.8-.4.5.2.6-.2.5-.5-.2-.6-.3-1-.2-1.6.6-.2.3.4.6.5.4-.3.2-1 .8-1.4-.2 1 .3 1.4.6 2 .4 0 .2-.6.3-.8 0-.6.2-1.2 1-1.4.3 0 .3-.3.4-.6l.4-1.6c.4.2 0 .7.4 1 .3-.2 0-.6.5-.6V65c1.3-.8 1.5-2.5 2.8-3 .3.2.3.3.2.5-.2.6.3.5.6.5.4 0 .4-.3.2-.5-.2-.3 0-.5 0-.7.3 0 .5 0 .6.2 0 .3.3.3.5 0 .3 0 .4-.2.6-.4.2 0 .2.2.2.4l-.2.6c.7-.8 1.4-.4 2.3-.6-.5.6-1.3.8-1.3 1.7 1-.4 1.6-1.4 2.6-1.7 0 .5-1 .7-.3 1.3v.3c-1 .4 0 1-.2 1.4 0 .2.2.2.3.2.5-.3.8-.2 1 .3l-1 .6c-.2.3-.4.4-.3 1v.2c-.7.7.2 1 .4 1.5 0 .3-.4.6-.7.7-.5 0-.4 0 0 .4 0 .2-.2.3-.4.3l-3 .6c-.3.3 0 .5 0 .7 0 .4-.2.6-.6.5-.4 0-.8 0-1-.2-1.4-.4-2.7-.5-4-1-.2-.2-.6-.3-1 0-1.4 1-3 1.7-4.3 3.2v.2c.2.3.5 0 .7 0 1.3-.2 2.7-.3 4-.7h.6c.4.3-.2.4 0 .5.4 0 1 .3 1 0 .3-.8.8-.6 1.4-.6h.7c0 .4-.2.5-.4.7 0 0-.2 0 0 .3 0 .8 0 1.2-.8 1.5h-1c0 .5.6.4.4 1-1.3-.8-2.6-1.3-4-1.5-.8 0-1.5-.3-2.2-.3-1.3 0-2.4.6-3.3 1.5-.3.5-.8.7-1.3 1l-1.2.2c-2 0-3 1.4-4.5 2.4-.3.3-.4.5-.4 1 0 3 0 6 .2 9.2 0 .4 0 .8.4 1 1.5-1.7 3.6-2.8 5.5-4.4 0 .6-.3 1-.6 1-2 1.7-3.4 4-4.8 6.2-.2.2-.2.5-.2.7 0 3.5 0 7 .4 10.5v.3c.6 0 .7-.5 1-.8 1.2-1.5 2.5-2.8 4.3-3.6.7-.2 1.3-.8 2-1.2.2-.2.3-.6.3-1 0-.6.6-1.2 1-1.8 0-.5.5-.7 1-.8 0 0 .4.3 1 .2 0 0 .2.4.6 0 .3 0 .8-.3 1-.7 0-.4.2-.7.3-1 .3-.7.5-.8 1.3-.2.4-.5.3-1.3 1-1.6.4 0 .2.4.5.7.6-.5 1-1.2 1.4-1.8.4 0 .2.3.4.5.4 0 .5-1.2 1.2-.5h.2c.4-1 1.5-.6 2-1.2.4-.4.8.3 1.2 0 0 .3-.2.5-.3.7 2-.5 3.7-1.2 5.7-2.4-.2 1-.5 1-.8 1.4-.4.3-.3.6-.2 1 .2.6.5.8 1 .5.6-.3 1-.2 1.5.2.2.3.7.2 1 .6-1.2 0-2 1-2.7 1.5-.2.2 0 .3 0 .5.3.2 0 .7.7.6h1c.7 0 .8.2.6 1 0 .3 0 .2.2.2.3 0 .6-.3.7.2 0 .3-.4.4-.7.3-.6 0-1 .6-1.8.4.3.7 1 .7 1.4.8 0 0 .3.3.2.5 0 .2-.3.2-.5.2l-2-1c-.8-.2-1.5-.5-2.2.2 0 0-.3.2-.3.4 0 .7 0 1.3.5 2h-1c-.8 0-.8 0-.7 1v.4c-.5-1-1.4-1-2.2-1.3-.7 0-1.3-.5-2-.8-.4.2 0 .4 0 .6 0 .4-.4.2-.6.4l-.2.3c-.3.6-.7.8-1.3.2 0-.2-.5 0-.8-.2h-.7c-.2-.5-.5-.7-1-.4-.3 0-.6-.3-.6-.6 0-.8-.5-1.2-1.3-1.3h-.2c-.5-1-1-.6-1.8-.4-.5.2-1 .3-1.3.6l-4.2 2.6c-.2 0-.4.2-.5.4-1.6 2-3.6 4-4.5 6.7 0 .3-.3.7-.2 1 0 1.2.2 2.3.3 3.5l1.8-1c.7-.7 1.5-.3 2.2-.6 0-.2.2 0 .2 0 0 1 .7.8 1.3.8-.4.5-1.2.6-1.2 1.6 1.3-.4 2.3-1.2 3.2-2z" fill="#2F2B49"/></g></svg>