<svg width="901" height="300" viewBox="0 0 901 300" xmlns="http://www.w3.org/2000/svg"><title>Drupal Camp Colorado</title><path d="M528 80.2c11.6 14.6 17.5 32 17.5 51.3 0 11.3-2 22-6.4 31.6-4 9.3-9.6 17.5-17 24.4-14.6 13.6-34.2 21-55.3 21-10.4 0-20.6-2-30.3-5.8-9.6-4-18.2-9.4-25.6-16.4-15.7-14.8-24.3-34.7-24.3-56 0-19.2 6.2-36.2 18.4-50.5 9.2-11 19.3-17 23.2-19.2 2-1 3.6-2 5.4-2.8C439 55 444 52.4 451 47c3.7-3 7.7-7.4 9.4-18.8 5.8 7 12.7 15 18 18.2 4.5 3 9.3 5.2 14 7.3 4.2 2 8.7 4 13 6.8h.3c13 8.2 20 17 22.2 19.7z" fill="#E46D6A" fill-rule="evenodd"/></svg>