<svg width="88" height="179" viewBox="0 0 88 179" xmlns="http://www.w3.org/2000/svg"><title>Drupal Camp Colorado</title><g fill="none" fill-rule="evenodd"><path d="M42.5 110.7c-.2.3 0 .6 0 .8 0 .8 0 1.6-.3 2.4 0 .4-.3 1 .2 1.7 0-1.7.4-3.3 0-5zm-.3 31.5c0-1.3 0-2.6-.2-4-.2 1.4 0 2.7.2 4zm0-100.2c.2 0 .4 0 .6-.3l1-1c.5-.3 1.2-.5.6-1.2.6-.6 0-1-.2-1.3-.3-.5-.4-.5-.8 0-.2.3-.5.5-.8.5-.5 0-.7.3-.7.8V42zm7.2 44.3c.4 0 .8 0 1 .5.2 0 .2.2.3 0 .7-.5.8.4 1.2.6-.2.4-.5.7-.8.8-.4.3-.8.5-.3 1l-.3.3c.3.3.6 0 1 0l-1.5.8c-.2 0-.3.2 0 .4 0 .2.2 0 .3 0l.8-.5c-.5.8-1.3 1.2-2 1.7-.3 0-.6 0-.6-.3 0 0 0-.2-.2-.2-.8 0-1.6.2-2.4.5.2.2.4 0 .5.3-.8.5-1.5 1-2.3 1.3-.4.2-.5.4-.4.8 0 .6 0 1.2-.2 1.8v.6c.2.8 0 1.6 0 2.5v2.8c0 .7.2.7.8.5l2.8-1.2c.3 0 .6-.3.5.3 0 .3.4.3.7.5-1.4.5-2.5 1.4-3.7 2-.6 0-.5-.5-.7-.5v5.8c1-.3 1.5-.2 2.2.2.5.2 1 .4 1.7.5 1 0 2 .7 3 1 .4.2.6.6 1 .5.2 0 .4-.4.7-.7l.4-.5c.4-.3.7-.5 1.3-.3.4.2 1 .3 1.3 0 0-.2.3-.2.4 0 0 .2-.2.5 0 .8 0 .2 0 .4.3 0 .2 0 .4-.3.7 0 .2 0 .4 0 .5-.2l2-1c.2 0 .5-.3.7 0 .3 0 0 .4 0 .6v.4l.8-.7c.5-.5.5-.5 1.2-.2-.3.6-1 1-1.2 1.7l1.2-.8c.2-.2.5-.4.7 0 0 .2 0 0 .3 0s.5-.4 1-.2c-.6.4-1 1-1.2 1.4l2-1c.4-.2.6-1 1-1.6.3.5-.2.8 0 1.3.6-.2.8-1 1.6-1.3-.5 1-1.3 1.4-1.8 2.4l2-1.3c0-.2.3-.6.4 0 0 .3.3.2.4 0 .5 0 1-.3 1.4-.5.2 0 .3-.2.5 0 0 .7-.8.8-1 1.3-.5.5-.8 1-1.4 1.3 1 .5 1.7 0 2.4-.2-.5.4-.3 1.3-1.2 1.4.5.3.8 0 1-.2.3-.3.5.5.8 0 .2-.2.6 0 1-.2.2-.2.6-.3 1-.4 0 .3-.2.5-.4.6-1 .2-1.7 1-2.2 1.8-.3.3-.4.4-.7.4-1.6 0-3 0-4.7-.2-1 0-1 0-1.8.4 0 .4.3.2.5.3 0 .2-.7.3 0 .7.2 0 0 .5.2.8l-.2.2c-.7.3-1.2 1-2 .3-.3-.2-.7 0-1 0 0 .5.4.5.7.7-.4.2-.6 0-.8-.2-.3-.3-.5-.7-1-.8l-.2-.4c-.2-.7-1.4-1-2-.5-.3.4 0 .8 0 1-.4 0-.6 0-.8-.3-.4-.6-1-.8-1.7-1l-.3-.2c-.3.7-.5.2-.8 0-.3-.2-.6-.2-.8-.2-1 0-1.5-.3-1.5-1 0-1-.4-1.7 0-2.6 0-.2-.2-.5-.4-.5-2-.7-3.6-1.6-5.6-1.7-.4 0-.7 0-1 .3-.5.2-.7.5-.6 1 0 .7 0 1.4.2 2v1.7c-.4 1-.2 2-.2 3 0 1.7.2 3.4 0 5-.2.6 0 1 0 1.7 1-.6 2-1 3-1.8 1-.7 2-1.2 3-1.6l1.2-.8c-.4.8-.8 1-1.2 1.4-1 1-2.6 1.3-3.6 2.3l-2 1.6c-.4.5-.7 1-.6 1.7 0 1.3 0 2.5.3 3.8v2.6c1.2-1 2.3-1.8 3.6-2.2-.3.5-.5 1-1 1.4l-2 1.2c-.5.2-.7.6-.7 1.2-.2 1.7 0 3.4 0 5 0 .7.3 1.4.4 2 0 1 .6 2.2.2 3.4 0 .3 0 .8.2 1 .3.7.3 1.2.2 1.8 0 .6 0 1.2.2 2 .5 0 1-.5 1.3-.8l.7-.4h.2v.3c-.5.6-.5 1.4-1.4 2-.5 0-.8.8-.6 1.5.2 1 0 2.3.3 3.4v.5c-.5 1-.5 2 0 2.8v1c0 2.6.3 5.3.4 8v3.7c0 1 0 2 .2 2.8.2 1.3 1.3 1.6 2 2.2 0 0 .3 0 .3.2 0 .3-.3.3-.5.3-.3 0-.5 0-.8.2h-.8c-.4-.2-1-.2-1.2-.4-.8-.5-1.7 0-2.5 0-.2-.2-.3 0-.5.2-.5.2-.8.7-1.4.3l-.7.3c-.2-.2-.2-.3 0-.4 0-.2.2-.3.4-.4.8-.4 1-1 1-1.8 0-1.2.4-2.4 0-3.5.5-2.5 0-5 .2-7.3l-.2-1.8v-6c-.2-1.8 0-3.5-.2-5.2v-5.6c0-.7-.3-1.2-1-1.5-.5-.2-.8-.5-1.3-.6-.5 0-.4 0 0-.5 0-.5.3-.5.7-.4 1.4.4 1.4.4 1.3-1v-3.7c0-1.2 0-2.3-.4-3.3s0-2 0-3.2c0-.7-.3-1-.8-1.6l-3-2.8c-.2 0-.3-.2-.3-.4.3-.2.4 0 .6 0 1 .7 1.7 1.4 2.7 1.7.2 0 .2 0 .3.2.3.3.6.3.7-.2 0-.6 0-1.3.2-2 0-.8 0-1.6.2-2.4v-2-5c-.2-1-.6-1.8-1.2-2.6-.2-.3-.5-.7-1-.5-1.6-1-3.4-.7-5-1.3-.5-.2-1-.4-1.4-.8l-.2-.5h.4c.4 0 1 0 1.3.2.7.4 1.4.6 2 .7 1.8.4 3.6.8 5.2 1.6.4-1 .3-2 .2-3l-.3-8.7c0-1.7-.5-3.2-1.8-4.4 0-.2-.2-.3-.4-.3C37 99 35.5 98 33.6 98c-.7 0-1.4 0-2 .2-1 .2-1.7.3-2.5.2-.3 0-.7 0-1 .4l-.8.6c-.2 0-.4.2-.6 0-.2-.4-.3-.2-.5 0-.2 0-.5.3-1 .3-.4 0-1-.2-1.2.5-.3.3-.8 0-1.2.2-.3-.3 0-.7-.2-1-.2 0-.3.2-.3.3-.5.8-.5.8-1.5.4 0-.2.3-.4.5-.6 0-.2.2-.4 0-.6 0-.4-.3 0-.5 0s-.4.2-.7 0c0-.3.4-.3.5-.5H18c.3-1 .7-1.4 1.5-1.3.5 0 1 0 1.4-.2v-.2c-1-.2-1.7-1.2-2.6-1.6 0-1-1-1-1.3-1.5v-.2c0-.2.3 0 .6-.2 0-.2-.5-.3-.3-.6h.3c.2 0 .3.4.5.6.4.3.5.6 1 .8l-.7-1.7s-.4-.4 0-.7c.4 0 0-.5.2-.8.5 0 .4.6.8.7.2-.3 0-.8.2-1 1 .3 1 .3 1-.6v-.2c.7.3.2 1 .7 1.4.2-.3 0-.7.2-1l.3-.2c.2 0 .3 0 .3.2 0 .3 0 .6.5.6 0 1 1 1.2 1 1.8 0 .3.2.3.4.2.4-.4.8-.5 1.3 0 .2.3.6.4 1 0 0-.2 0-.3.3-.2.2.6-.5.7-.6 1.2.3 0 .4-.2.5-.3.4-.2 1 0 1 .5.2.3.4.3.6 0 .2 0 .3 0 .4-.2.3-.7.3-.7.7-.2l.3.5c.4.4.5.4 1 0l.3-.6c.2-.2.2-.5.6-.6.3.6 0 1.6.8 2 .6 0 1 .8 1.8.4 0 .4 0 .7.2 1 0 .8.2 1 1 1 .3.2.6 0 .7.6 0 .3.5.5 1 .5 1 0 1.7.5 2.5 1 .6.3 1.2.7 2 .8.2-1 0-2 0-2.8.2-1.2 0-2.5 0-3.7 0-.6 0-1-.6-1-.8-.2-1.5-.6-2-1 .3-.4.5 0 .7 0 .5.4 1 .7 1.6.8h.2v-.3c-1-.3-1.6-.6-2.3-1-.4-.2-.7.2-1 0 0-.3.4-.3.6-.6-1.2-.7-2.5-1.2-3.7-2 .4-.4 1-.5 1.5-.3l1.7.4-.2-.7c0-.4.3-.6.7-.4.3 0 .5.6 1 .7 0-.6-.4-1-.5-1.4.7 0 .7 1 1.4 1 0-.4-.5-.6-.4-1h.2c.5.2.7 0 .7-.4v-1.4-7c0-.4-.3-.8-.7-1-.8-1-1.6-1.6-2.7-2-.5 0-.8-.2-1-.6-.6-.6-.8-.6-1.5-.2-.6.3-1.3.5-2 .5-.6 0-.8.2-1 .6-.2.3-.4 1-1 .6-.3 0-.4 0-.5.3 0 .3-.3.7-.8.7-.2 0-.2.5-.5.5-.3-.4.2-.8 0-1.2-.4 0-.3.4-.5.6 0 .2-.2.4-.5.2-.2 0 0-.3 0-.4v-.2c-.2 0-.3.4-.5.4s-.2-.2-.2-.3c0-.2.3-.5 0-.8 0-.2 0-.6-.5-.6-.2 0-.4-.2-.4-.4 0-.3.4-.2.5-.2.5 0 .8 0 1-.5-.2-.4-.6 0-.7-.4-.2-.2.4-.3 0-.7-.2-.4-.4-.3-.7-.2H26c-.3.2-.3.2-.5-.2 0-.2-.2-.2-.3-.2-1.4 0-2.4-.7-3.4-1.5-.2-.2-.3-.3-.2-.4.2-.4-.2-.5-.4-.7-.4-.5-1-1-1-1.6 0-.2 0-.4-.2-.6-.4-.3-.2-.8-.2-1.2 0-.3.3-.4.6-.4.4 0 .7.4 1 .3.6-.2.7.3 1 .5.2-.2 0-.7.2-.7h1s0 .3.2.5c.2.3.2 1 .7 1 .4 0-.2-.8.4-.8.3 0 .2.8.5.8.4 0 .6-.5.5-1 .3 0 .4.2.5.4 0 .3 0 .7.7.6.2 0 .3.2.3.3 0 .3 0 .4.2.5 0 .3.3.4.6.3v-.6c-.3 0-.6-.2-.5-.5.2-.2.4 0 .7 0 .3 0 .5.4.8.4.2 0 0 0 .2-.3 0-.2 0-.7.2-.7.5 0 .2.4.4.6.2 0 .2.2.3.2.3.5.7.5 1 0 0-.4.3-.6.4-1 .2-.4.5-.4.8 0 .6.2.5 1 1.3.7.4-.2 1 .2 1.3-.4.3.6.2 1 .2 1.4v1c.6.2.7-.3 1.2-.5 0 .7-.5 1.3-.8 2 1-.2 1.3 0 1.6 1 .3.8 1 1.3 1.5 2 .5.4 1 1 2 1 .2 0 0-.2 0-.4v-9.3l-.2-2.7c0-.6-.4-1.3-1.3-1.4-1-.2-1.6-.8-2.3-1.5l-.3-.2c-1 0-2-.5-2.6.4l-.3.2c-.6 0-1 .3-1.4.7-.2 0-.3 0-.5-.2-.3 0-.8-.6-1 0-.4.6-.5 0-.7 0l-.4.5c-.2.2-.3.3-.5.2V61v-.3c-.3 0-.4.3-.7.2v-.3c0-.2.2-.3.2-.7-.4 0-.6.3-.8.6-.6.6-1.2.8-2 .6H25c0-.5.6-.6.6-1-.8 0-1 1-1.7 1-.4-.2 0-.3 0-.5-.3 0-.5.3-.7 0 0-.3.4-.4.4-.5 0-.3-.4-.7-.6-.7h-.3c-.2.2-.4.4-.7.3-.3 0-.2-.4-.3-.6-.2-.3-.6-.5-.4-1 0 0-.3-.2-.3 0-.3.4-.8.3-1.3.3.2-.5.6-.4.8-.5.7-.4.7-.8 0-1.2-.2-.3-.5-.5-1-.8-.5-.6-.5-.7.4-1.3l-1.4-2c.6.3.8 1 1.5 1.3-.3-1-1-1.6-1-2.5h.4c.3-.2.6.2.8 0 .2-.2.2-.6.3-.8.4 0 .7.7 1.3.3.3 0 .5.5 1 .5l.2.6c0 .7.3 1.2.5 1.8.2.4.4.8.8 1 0-.6-.4-1-.2-1.8.7.7 1.4 1.2 2.2 1.4.4 0 .5.3.7.5.4.2.4.2.8-.3l1 1c.7-.7-.3-1.4 0-2 .3-.3.3.3.7.3.3-.4-.3-.7 0-1.2.2 1 1.5 1.4 1.5 2.7.5-1-.2-1.4-.5-2 .3-.2.4 0 .6.2l.6-.2c.2 0 0 .3 0 .4.2.3 0 1 .7.4.6.5 1.3-.3 2 .4 0 .2.5-.2.8.2 0 .3-.7 0-.6.7.3 0 .6-.5 1 0 .3.4 0 1 .5 1 .2 0 .3-.5.6-.7.3.7-.2 1-.5 1.5.6 0 .7.5 1 .5 0 .2-.4.2-.4.7.7.2 1 1 2 1 .3 0 .5.3.7.5l1 1c.4-.5.3-1 .3-1.4v-6.5c0-.5 0-.8-.5-.8-.8-.2-1.5-.8-2.4-1-.2 0-.3-.2-.2-.4v-.3c0-.8 0-.8.8-.7.3 0 .5.2.7 0-.2-.4-.5-.5-.7-.8-.2-.3 0-.6.2-.6.7 0 1.2-.4 1.8-.4.2 0 .4-.2.4-.4 0-1 .3-2.2-.2-3.3 0-.4-.3-.5-.6-.6-.8-.3-1.4-.3-2-.2-.3 0-1 0-.7.7 0 .2-.2.2-.3.3-.6 0-1 .8-1.8.5.4.2 1 .3 1.4.3-.6.5-1.3.6-2 .8-.4.2-.8.3-1 .7-.5.5-1 .6-1.5.6-.6 0-1.2 0-2 .3-.2 0-.5.2-.7.5-.2.2-.3.4-.6.3 0-.6.6-.7.8-1.4l-1.6 1c-.5.2-1 .7-1.5.2 0 0-.4.3-.7 0 0-.3.3-.4.6-.5 0 0 .2 0 0-.2 0-.2-.2-.2-.3 0l-.5.4c-.2 0-.4.3-.6-.2-.2-.3-.7.2-1-.3.4-.3 1-.3 1.2-.7 0-.3-.2-.4-.4-.5-.3-.3-.5-.5-.6-1 0-.6-.4-1-.8-1.3 0-.2.3-.3.3-.2.5.6 1 0 1.6.4.2 0 .7-.7.6-1l-.4-.7c.5-.2 1 .2 1.3.3 0 0 .4.3.6 0 .2-.4-.2-.4-.4-.6l-.4-.3c.7 0 1-.4 1.6 0 .2 0 .2-.3 0-.4 0-.5.2-.6.6-.4.5.3.8 0 1-.4.5.5.3 1.3 1 1.3.3 0 0-.4 0-.6 0-.2.2-.3.4-.4.2 0 .2.2.3.3 0 .3 0 .5.2.8 0 .2 0 .5.2.5.3 0 .6 0 .6-.4v-.3s0-.2.2-.2h.2c0 .3 0 .4.2.6.2.8.2.8 1 .7.4 0 .6.2 1 .3v.3c0 .6 0 .7.7.5.6-.2 1-.3 1.5-.7-.2-.4-1-.2-1.2-.8.4 0 .5-.5 1-.4.4 0 .5-.7 1-.3.4-.3.8-.2 1.2 0 .2.3.6.3 1 0v-1c0-.3-.3-.3-.4-.3 0 0-.4 0-.6.2-.4.2-.8.3-1-.2 0 0-.4-.2-.5 0-.7.5-1-.4-1.6-.3-.6 0-1.2 0-1.7-.2-.3 0-.7 0-.5-.6 0-.2-.4 0-.5-.3.2-.5.6-.6 1-1 .2-.2.7-.4.4-.8 0-.3-.5 0-.8.2 0 0-.3.3-.6.2l.2-.5h-.3c0 .2-.3.4-.4.5-.2.3-.4.4-.8.2-.5-.2-1 0-1.5.4 0-.6.6-1 .4-1.4-.4.2-.4 1-1 1L29 38c0-.6.5-1 .5-1.5-.3 0-.6.4-.8.6-.4.4-.8.4-1.2 0 .4-.8 1-1.4 1.5-2.2-.4-.4-1-.2-1.2-.7.3-.2.7 0 1 0 .5-.3.4-.7.7-1-.3-.5-1-.5-1.3-1 .6-.5 1 .2 1.7 0-.2-.5-1-.4-.8-.8 0-.5.6 0 1 0l1.7.3c-.2-.5-.6-.7-1-1-.4-.2-.7-.5-.7-1.2.8 0 1.3.5 2 .8l2 1c.3-1 1-1.4 1.5-2 .6-.7.6-.8-.3-1.2-.4 0 0-.4-.3-.5-.4 0-.4.5-1 .5 0-.5.6-.7.6-1v-.2c-.4 0-.7.7-1 .3-.3-.4.3-.6.4-1l.3-.3c-.4-.6-1-1-1.6-.7-.5.2-.6-.4-1-.3.3-.7 1-.8 1.3-1.2-.4-.7-1-1.3-1-2.2.6 0 .7.7 1.2.7.3-.2-.2-.4 0-.6.3-.2.4 0 .5.2.2.3.4.5.7.2.3-.2.6 0 .8.2.3.3 1 .3 1.7.3.3 0 .8 0 1-.5.2-.2.4 0 .6 0l.6.2c0-.3-.3-.4-.5-.4l-1.3-.6c-.2 0-.4-.2-.3-.5.3-.2.4 0 .6 0 .4 0 .8.2 1.2.4 0 0 0-.2.2-.2-.3-.5-1-.5-1.4-1 .5-.4 1.2 0 1.6-.6-.6-.3-1-.7-1.6-1.2 0-.2-.3-.4-.2-.6.2-.3.4 0 .5 0 .3-.2.5 0 .8.2 0-.5-.3-.7-.5-1-.3-.3-.3-1 0-1.2.4-.3.2-.6.4-1 .5.5 1 0 1.3 0 .3 0 0 .3.4.5.6 0 .5 1 .4 1.5 0 .8.4 1.3 1 1.5.2 0 .4.3.6.5.6.3.5 1 .7 1.3v.4c-.5.3-.4 1-.8 1.5.5 0 .8-.5 1.2-.4.3 0 .7.2 1 0 0 .2-.3.5-.5.8-.2.2-.2.3 0 .4h.2c1-.8 2-1.6 2.7-2.5.2-.5.8 0 1.2-.5 0 0 .2.2 0 .4 0 .2-.3.4-.5.7.5.3.6-.4 1-.3.3.3 0 .6 0 1 .4-.4.8-.3 1.3-.2 0 .4-.3.7-.6.6-.7-.2-.8.2-1 .6.7-.4 1 .5 1.7.6.2 0 .3.3 0 .4-.2 0-.4.4-.8.5.8 0 0 1 .6 1-.8 0-1.4.3-2 .7-.5.3-1 0-1.5 0-.4 0-.6 0-.8.3 0 .5.8.5 1 1.2-.5 0-1 0-1.3-.2-.4 0-.5 0-.5.6 0 1 0 1-1 1 0 .2.3.3.4.4.6.4.6.4 1.2 0 .2 0 .4-.3.6-.4.3-.2.5 0 .7 0 .2.3 0 .5-.2.7-.4.3-1 .6-1.3 1.3.8-.3 1.2-1 1.8-1 .3 0 0 .3 0 .5.2.4.4 0 .6 0 .3.3 0 .6 0 1 .6-.4 1-.4 1 .3 0 .5.5.4.8.2.7-.4 1.5-.5 2.2-1 0 .5-.5.5-.6 1 .5 0 1 0 1.3-.4h.6v.6l-.3.4c-.5.8-.5.8 0 1.5.7.7 1.5 1.2 2.4 1.7h.2c-.2-.4-.5-.5-.8-.7v-.2c0-.2 0-.2.2 0l1.6.4c-.3.4-.4 1-.7 1.2-.6.3-.5.5.2.7 0 0 .3 0 .4.3-.3.3-.4.7-1 .6-.4 0-.5.6-1 .4v.2c.4 1-.3.6-.7.7H53l1 1c-.4.5-1 0-1.4.2 0 .3.2.5.5.7-.6.3-1 .3-1.7 0-.7-.2-1.4-.2-2 0-.7.5-1.6.6-2.4.6-.3 0-.7 0-.4-.4V41c-.4-.3-1.2-.3-1.4 0-1.4 1-2.3 2.2-2.8 3.7-.4 1-.5 2 .2 3.2.2.2.3.2.6 0 .3 0 .7-.2.8-.5.3-.8 1-.6 1.6-1 0 0 .3 0 .2.3-.2.5.7.5.4 1h.2c.7 0 .4.6.6 1 .4 0 .7-.4 1-.6.2.5 0 1-.2 1.2-.5.5-1 1-1.3 1.6 0 .2-.3.3-.5.5-1.2.8-2 1.8-3 2.8-.3.2-.4.5-.4.8v3.5c0 .5.2.6.7.6 1 .2 1.7 0 2.5-.2.3 0 .6-.3 1-.3.2 0 .4 0 .6-.3l1-1 .3-.4c0-.5.3-.7.5-1 .2-.2.3-.4.3-.8-.2-1 .2-2 .2-3l.3.3c.2 0 0 .7.4.6.3-.2.2-.6.3-1v-.4c.2-.3.3-.5.7-.3.4 0 .4-.2.3-.4 0-.5-.2-1 0-1.3.4 0 0 .4.4.4.5 0 .3-.6.8-1-.2.8.2 1.2.4 1.6.4 0 .2-.4.3-.6 0-.4 0-1 .7-1 .3 0 .3-.3.3-.5l.3-1.3c.3.2 0 .5.3.7.3 0 .2-.5.5-.5v2c1-.7 1-2 2.2-2.4.2.2.2.3 0 .5 0 .4.3.3.5.3.3 0 .3-.2.2-.4V47c.2-.2.4 0 .5 0 0 .3 0 .3.2 0 .2 0 .3 0 .4-.2.2 0 .2 0 .2.3v.6c.4-.7 1-.4 1.6-.6-.3.6-1 .7-1 1.4 1-.3 1.3-1 2-1.4 0 .4-.7.6 0 1l-.2.3c-.6.3 0 .8 0 1 0 .3 0 .3.2.2.3 0 .5 0 .7.3 0 .2-.3.3-.6.5-.3 0-.4.2-.3.6 0 0 .2 0 0 0-.5.7.2 1 .4 1.3-.2.3-.4.5-.7.5-.4 0-.3.2 0 .4.2 0 0 .2-.3.2-.8 0-1.5.3-2.3.4v.5c0 .3 0 .5-.3.4h-1c-.8-.5-2-.5-2.8-1h-1c-1 .8-2.4 1.4-3.4 2.5v.2c0 .3.4 0 .6 0 1 0 2-.2 3-.5.2-.2.4 0 .5 0 .3 0 0 .2 0 .3.3 0 .8.2.8 0 .2-.7.7-.5 1-.5h.6c.2.3 0 .4-.2.5v.4c0 .6 0 1-.6 1-.3.2-.5.2-.8.2 0 .2.5.2.4.6-1-.6-2-1-3.3-1-.5-.2-1-.4-1.6-.4-1.2 0-2 .5-2.7 1.2-.3.4-.7.6-1 .7l-1 .3c-1.5 0-2.5 1-3.5 2-.3 0-.4.2-.4.5 0 2.5 0 5 .2 7.3 0 .4 0 .7.4 1 1-1.5 2.7-2.3 4.2-3.5 0 .4-.2.6-.4.8-1.7 1.3-2.7 3-4 4.8v.6c0 2.8 0 5.5.3 8.2l.2.2c.3 0 .4-.4.6-.6 1-1 2-2.2 3.4-2.8.6-.2 1-.7 1.5-1 .3-.2.3-.4.4-.7 0-.7.5-1 .7-1.6 0-.4.5-.5.8-.6 0 0 .4.2.8 0 0 0 .2.4.5.2s.7-.3.8-.6c0-.3.2-.5.3-.8.2-.6.3-.6 1-.2.3-.3.2-1 .7-1.2.3 0 .2.4.4.6.6-.4 1-1 1.2-1.4.3 0 0 .4.3.5.4 0 .4-1 1-.5.4-.8 1.3-.5 1.7-1 .3-.3.6.3 1 .2l-.3.4c1.5-.3 3-1 4.4-1.7 0 .5-.4.7-.6 1-.2.2-.2.4 0 .7 0 .5.3.6.7.4.4 0 1 0 1 .3.3.2.7 0 1 .4-1 .2-1.5 1-2 1.3-.3 0-.3.3 0 .4 0 0 0 .6.4.5 0 0 .4-.2.6 0 .6 0 .7 0 .5.8.2.2.3 0 .4 0 .2 0 .5 0 .5.2 0 .3-.3.3-.6.3-.4 0-.8.3-1.4.2.3.6.7.6 1 .7.3 0 .4 0 .4.3 0 .2-.3.2-.5.2-.6-.4-1-.7-1.6-.8-.6-.2-1.2-.4-1.7 0l-.2.5c0 .5 0 1 .4 1.4-.4.3-.7.2-1 .2-.6 0-.6 0-.5.8v.3c-.4-.8-1-.8-1.7-1-.5 0-1-.4-1.5-.6-.3.2 0 .4 0 .5 0 .3-.4.2-.5.3l-.2.2c-.3.5-.5.7-1 .2 0-.2-.4-.2-.6-.2h-.5c-.2-.5-.4-.6-.8-.4-.2.2-.4 0-.5-.3 0-.6-.3-1-1-1-.5-.7-1-.5-1.5-.3-.4 0-.7.2-1 .4-1 .8-2.3 1.5-3.4 2 0 .2-.3.3-.4.4-1.3 1.7-3 3.2-3.6 5.3l-.2 1 .3 2.6c.5-.2 1-.5 1.5-1 .5-.3 1 0 1.7-.3v.2c.2.7.7.6 1.2.6-.5.3-1 .4-1 1.2 1-.4 1.7-1 2.4-1.7z" fill="#2F2B49"/></g></svg>